<svg width="129" height="27" viewBox="0 0 129 27" fill="none" xmlns="http://www.w3.org/2000/svg">
  <path d="M13.8877 0V9.08774H4.47079V0H0V21.6933H4.47079V12.9007H13.8877V21.6933H18.3585V0H13.8877Z" fill="#000000"/>
  <path d="M32.6667 14.6805C32.6667 15.5499 32.2771 16.3837 31.5834 16.9984C30.8898 17.6132 29.949 17.9585 28.9681 17.9585C27.9872 17.9585 27.0464 17.6132 26.3528 16.9984C25.6591 16.3837 25.2695 15.5499 25.2695 14.6805V5.38888H21.0287V14.6805C21.0287 16.5449 21.8643 18.333 23.3518 19.6513C24.8393 20.9697 26.8568 21.7103 28.9604 21.7103C31.0641 21.7103 33.0815 20.9697 34.569 19.6513C36.0565 18.333 36.8922 16.5449 36.8922 14.6805V5.38888H32.6667V14.6805Z" fill="#000000"/>
  <path d="M64.0881 6.34648C64.0881 4.44196 65.5097 3.83818 67.0672 3.83818C68.3223 3.83818 69.9805 4.68464 71.0648 5.71164L73.8424 2.81118C72.4558 1.14933 69.6432 2.00272e-05 67.341 2.00272e-05C62.741 2.00272e-05 59.4136 2.38795 59.4136 6.34648C59.4136 13.6908 69.5424 11.3611 69.5424 15.4711C69.5424 16.7388 68.1537 17.859 66.5634 17.859C64.0553 17.859 63.2426 16.7718 62.0904 15.6225L59.0084 18.4628C60.9798 20.6081 63.4113 21.6972 66.3246 21.6972C70.6946 21.6972 74.2104 19.2801 74.2104 15.5022C74.2104 7.34825 64.0815 9.88179 64.0815 6.34648" fill="#000000"/>
  <path d="M126.749 18.2276C124.243 18.2276 123.532 17.2667 123.532 15.7951V9.28163H127.426V5.98124H123.532V1.62666L119.232 3.33704V16.6046C119.232 19.9982 121.873 21.7086 125.496 21.7086C126.065 21.7178 126.633 21.6775 127.192 21.5882L128.241 18.1655C127.768 18.1946 127.225 18.2238 126.749 18.2238" fill="#000000"/>
  <path d="M48.8095 5.49843C46.7088 5.49843 45.2434 6.03814 43.8261 7.27094V0.130438H39.5788V13.365C39.5788 18.3195 43.6202 21.7131 48.1611 21.7131C53.1992 21.7131 57.6306 18.2593 57.6306 13.6077C57.6306 9.01432 53.5519 5.50037 48.8095 5.50037V5.49843ZM48.7832 17.9254C47.8301 17.9254 46.8984 17.6749 46.1059 17.2056C45.3134 16.7363 44.6957 16.0692 44.331 15.2888C43.9662 14.5083 43.8708 13.6496 44.0567 12.821C44.2427 11.9925 44.7016 11.2315 45.3756 10.6342C46.0496 10.0368 46.9082 9.63006 47.8431 9.46526C48.7779 9.30046 49.7468 9.38504 50.6274 9.70831C51.508 10.0316 52.2606 10.579 52.7901 11.2814C53.3196 11.9838 53.6023 12.8095 53.6023 13.6543C53.6023 14.7871 53.0946 15.8734 52.1908 16.6744C51.2871 17.4754 50.0613 17.9254 48.7832 17.9254Z" fill="#000000"/>
  <path d="M94.9278 13.4088C94.9278 8.74945 90.5052 5.30345 85.4584 5.30345C80.9175 5.30345 76.876 8.69703 76.876 13.6515V26.8939H81.1234V19.7436C82.5384 20.9745 84.0061 21.5162 86.1045 21.5162C90.8469 21.5162 94.9256 18.0041 94.9256 13.4088H94.9278ZM90.9061 13.3622C90.9061 14.207 90.6235 15.0328 90.0939 15.7351C89.5644 16.4375 88.8118 16.9849 87.9312 17.3082C87.0506 17.6315 86.0817 17.7161 85.1469 17.5513C84.2121 17.3865 83.3534 16.9797 82.6794 16.3824C82.0055 15.785 81.5465 15.024 81.3605 14.1955C81.1746 13.367 81.27 12.5082 81.6348 11.7278C81.9995 10.9473 82.6172 10.2803 83.4097 9.81095C84.2022 9.34163 85.1339 9.09114 86.087 9.09114C87.3651 9.09114 88.5909 9.54113 89.4946 10.3421C90.3984 11.1431 90.9061 12.2295 90.9061 13.3622Z" fill="#000000"/>
</svg>
