<svg width="15" height="15" viewBox="0 0 15 15" fill="none" xmlns="http://www.w3.org/2000/svg">
<path d="M0.280374 15H3.36449V5.01562H0.280374V15Z" fill="black"/>
<path d="M0 1.82813C0 2.8125 0.794393 3.60938 1.82243 3.60938C2.80374 3.60938 3.59813 2.8125 3.59813 1.82813C3.59813 0.84375 2.80374 0 1.82243 0C0.794393 0 0 0.84375 0 1.82813Z" fill="black"/>
<path d="M11.8692 15H15V9.51562C15 6.84375 14.3925 4.73438 11.2617 4.73438C9.76635 4.73438 8.73832 5.57812 8.31776 6.375H8.27103V5.01562H5.3271V15H8.41121V10.0781C8.41121 8.76562 8.64486 7.5 10.2804 7.5C11.8692 7.5 11.8692 9 11.8692 10.125V15Z" fill="black"/>
</svg>
